<?xml version="1.0" standalone="no"?>
<!DOCTYPE svg PUBLIC "-//W3C//DTD SVG 20010904//EN"
 "http://www.w3.org/TR/2001/REC-SVG-20010904/DTD/svg10.dtd">
<svg version="1.0" xmlns="http://www.w3.org/2000/svg"
 width="1663.000000pt" height="1663.000000pt" viewBox="0 0 1663.000000 1663.000000"
 preserveAspectRatio="xMidYMid meet">
<metadata>
Created by potrace 1.11, written by Peter Selinger 2001-2013
</metadata>
<g transform="translate(0.000000,1663.000000) scale(0.100000,-0.100000)"
fill="#000000" stroke="none">
<path d="M3250 13853 c-359 -35 -678 -197 -915 -463 -82 -92 -149 -196 -211
-324 -104 -217 -134 -379 -134 -719 l0 -225 -417 -4 c-464 -5 -470 -6 -613
-76 -109 -53 -232 -177 -288 -289 -77 -155 -73 -81 -70 -1433 l3 -1205 27 -73
c39 -106 83 -177 163 -257 80 -80 151 -124 257 -163 l73 -27 433 -3 432 -3 0
-2901 c0 -3166 -3 -2991 56 -3196 31 -107 115 -285 181 -383 207 -305 532
-517 898 -585 97 -18 256 -19 5050 -19 4733 0 4954 1 5039 18 290 59 523 183
727 386 198 199 318 421 382 711 l21 95 4 4895 c2 3467 0 4926 -8 5002 -34
339 -184 641 -437 878 -182 170 -395 282 -658 343 l-90 22 -4935 1 c-2714 0
-4951 -1 -4970 -3z m9795 -583 c348 -39 629 -291 700 -628 22 -101 22 -9823 0
-9924 -71 -337 -352 -589 -700 -628 -126 -14 -9636 -14 -9760 0 -368 43 -658
327 -705 694 -7 55 -10 979 -8 2941 l3 2860 2615 5 c2509 5 2617 6 2670 23
174 59 324 186 398 337 77 156 72 66 72 1400 0 1325 3 1253 -67 1397 -46 95
-163 222 -254 276 -35 21 -100 50 -144 65 l-80 27 -2607 3 -2608 2 0 194 c0
220 10 314 45 417 98 288 362 504 657 538 108 12 9661 13 9773 1z m-5253
-1553 c61 -30 105 -74 140 -140 l23 -42 0 -1185 0 -1185 -27 -46 c-35 -60 -81
-104 -137 -132 l-46 -22 -3280 0 -3280 0 -46 23 c-59 29 -112 82 -141 141
l-23 46 0 1180 0 1180 22 41 c48 90 119 146 204 163 24 5 1504 8 3289 7 l3245
-1 57 -28z"/>
<path d="M4560 6515 c0 -987 3 -1235 13 -1235 7 0 147 40 312 88 265 78 328
101 543 196 l242 108 0 1039 0 1039 -555 0 -555 0 0 -1235z"/>
<path d="M10807 7203 c-9 -9 -9 -1993 0 -1993 4 0 38 19 77 42 l70 41 435 78
c240 43 446 81 459 84 l22 5 0 875 0 875 -528 0 c-291 0 -532 -3 -535 -7z"/>
<path d="M7657 6483 c-4 -3 -7 -260 -7 -569 l0 -563 268 -228 c147 -126 281
-238 297 -250 24 -18 507 -173 537 -173 4 0 8 403 8 895 l0 895 -548 0 c-302
0 -552 -3 -555 -7z"/>
<path d="M9200 5050 l0 -489 133 -41 c72 -23 152 -48 176 -55 l44 -15 376 228
376 227 3 318 2 317 -555 0 -555 0 0 -490z"/>
<path d="M5492 5190 c-163 -74 -382 -145 -900 -292 l-32 -9 2 -942 3 -942 553
-3 552 -2 0 1135 c0 624 -1 1135 -2 1134 -2 0 -81 -36 -176 -79z"/>
<path d="M11455 5010 l-370 -68 -140 -84 -140 -84 0 -890 0 -889 533 -3 532
-2 0 1045 0 1045 -22 -1 c-13 -1 -189 -32 -393 -69z"/>
<path d="M7652 3933 l3 -928 553 -3 552 -2 0 654 0 655 -67 20 c-38 12 -198
61 -358 110 l-290 89 -168 144 c-93 78 -182 153 -198 166 l-29 24 2 -929z"/>
<path d="M9949 4259 l-347 -209 -195 60 c-107 33 -197 60 -201 60 -3 0 -6
-263 -6 -585 l0 -585 553 2 552 3 3 733 c1 402 -1 732 -5 731 -5 0 -164 -95
-354 -210z"/>
<path d="M4390 10485 l0 -975 250 0 250 0 0 975 0 975 -250 0 -250 0 0 -975z"/>
<path d="M5673 10940 c-172 -24 -290 -75 -379 -164 -81 -82 -107 -147 -108
-271 -1 -78 3 -98 27 -150 15 -33 49 -82 75 -108 86 -88 185 -132 443 -197
186 -47 219 -59 254 -94 34 -34 35 -97 1 -131 -52 -52 -180 -58 -279 -12 -63
29 -127 84 -159 135 -12 21 -22 38 -23 39 -2 4 -387 -105 -393 -112 -15 -14
58 -125 128 -196 61 -61 94 -85 170 -122 198 -98 418 -120 650 -66 282 65 445
270 401 506 -15 83 -40 133 -99 195 -88 95 -203 147 -471 215 -95 24 -183 49
-195 55 -82 42 -89 115 -14 154 24 13 51 15 118 12 109 -5 179 -36 245 -110
l45 -51 158 73 c86 40 161 76 166 81 5 5 -1 24 -16 46 -56 85 -161 169 -266
214 -119 51 -341 79 -479 59z"/>
<path d="M2692 10818 c28 -46 120 -192 205 -326 84 -134 153 -246 153 -250 0
-7 -5 -16 -268 -450 l-172 -282 262 2 263 3 103 190 c57 105 116 218 131 253
l28 63 18 -43 c10 -24 70 -139 133 -255 l115 -213 269 0 c222 0 269 2 265 13
-3 8 -100 170 -216 361 -116 191 -211 352 -211 358 0 8 187 310 367 591 l43
67 -263 0 -262 -1 -90 -165 c-49 -91 -102 -193 -117 -227 l-27 -62 -16 40 c-9
22 -62 124 -118 227 l-102 188 -273 0 -272 0 52 -82z"/>
</g>
</svg>
